<?xml version="1.0" standalone="no"?>
<!DOCTYPE svg PUBLIC "-//W3C//DTD SVG 20010904//EN"
 "http://www.w3.org/TR/2001/REC-SVG-20010904/DTD/svg10.dtd">
<svg version="1.0" xmlns="http://www.w3.org/2000/svg"
 width="700.000000pt" height="700.000000pt" viewBox="0 0 700.000000 700.000000"
 preserveAspectRatio="xMidYMid meet">
<metadata>
Created by potrace 1.11, written by Peter Selinger 2001-2013
</metadata>
<g transform="translate(0.000000,700.000000) scale(0.100000,-0.100000)"
fill="#000000" stroke="none">
<path d="M556 4911 c-3 -5 -65 -317 -90 -451 -3 -14 -19 -95 -36 -180 -40
-203 -39 -199 -46 -240 -3 -19 -7 -41 -10 -49 -2 -8 -7 -30 -10 -50 -3 -20 -9
-52 -14 -71 -5 -19 -11 -51 -14 -70 -3 -19 -8 -44 -10 -56 -8 -41 -55 -279
-60 -304 -2 -14 -29 -151 -59 -305 -31 -154 -59 -296 -62 -315 -3 -19 -8 -42
-10 -50 -2 -8 -6 -27 -9 -41 -2 -14 -13 -73 -25 -130 -11 -57 -22 -115 -25
-129 -2 -14 -9 -45 -14 -70 -6 -25 -13 -61 -16 -80 -3 -19 -14 -78 -25 -130
-11 -52 -18 -97 -16 -100 4 -7 6432 -7 6438 0 3 4 55 260 82 405 2 11 6 31 9
45 2 14 19 97 36 185 18 88 33 167 35 175 2 8 10 53 19 100 22 117 24 129 30
148 3 9 7 33 10 52 7 45 6 38 78 400 33 168 62 316 64 330 3 14 9 48 14 75 6
28 12 61 15 75 3 14 14 72 26 129 11 57 23 116 25 130 2 14 9 46 14 71 5 25
12 56 14 70 2 14 16 86 31 160 15 74 29 144 31 155 9 53 13 72 19 96 l6 25
-3221 0 c-1772 0 -3223 -2 -3224 -5z m6319 -119 c-2 -15 -22 -117 -44 -227
-22 -110 -44 -225 -50 -255 -6 -30 -13 -66 -16 -80 -3 -14 -7 -36 -10 -50 -17
-93 -70 -365 -91 -466 -14 -67 -27 -134 -30 -150 -2 -16 -9 -49 -14 -74 -5
-25 -12 -56 -14 -70 -2 -14 -27 -141 -55 -283 -28 -143 -53 -273 -56 -290 -3
-18 -14 -72 -25 -122 -10 -49 -21 -108 -25 -130 -3 -22 -10 -56 -15 -75 -5
-19 -12 -50 -15 -67 -12 -77 -16 -97 -30 -166 -9 -39 -18 -80 -21 -89 -5 -17
-163 -18 -3125 -18 l-3119 0 5 33 c3 17 10 55 15 82 6 28 12 61 15 75 3 14 12
61 21 105 8 44 17 91 20 105 3 14 11 57 19 95 8 39 16 81 18 95 3 14 12 59 20
100 9 41 18 86 21 100 12 69 39 207 43 225 2 11 6 31 9 45 2 14 7 36 10 50 3
14 8 36 10 50 3 14 32 165 65 335 34 171 63 319 65 330 5 26 64 325 69 346 2
9 6 32 9 50 3 19 12 67 20 106 9 40 18 85 21 100 3 16 7 39 10 53 2 14 10 50
15 80 6 30 13 61 15 67 3 10 644 13 3125 12 l3120 0 -5 -27z"/>
<path d="M1245 4460 c-4 -6 -41 -171 -51 -227 -4 -20 -38 -186 -119 -573 -44
-207 -36 -170 -74 -355 -35 -165 -38 -180 -45 -211 -2 -12 -7 -38 -10 -59 -4
-20 -8 -40 -10 -44 -2 -3 -7 -22 -10 -41 -6 -38 -9 -50 -25 -120 -5 -25 -13
-61 -16 -80 -3 -19 -14 -72 -24 -117 -10 -45 -16 -85 -13 -88 3 -3 126 -5 273
-5 l269 0 5 23 c9 40 155 741 161 772 2 17 7 37 9 45 3 8 21 94 41 190 19 96
38 184 40 195 2 11 7 34 10 50 2 17 9 46 14 65 5 19 12 51 15 70 3 19 28 141
55 270 28 130 50 238 50 241 0 8 -540 7 -545 -1z"/>
<path d="M2216 4461 c-3 -5 -9 -31 -20 -86 -3 -11 -18 -87 -35 -170 -18 -82
-33 -159 -36 -170 -28 -141 -56 -273 -60 -286 -5 -14 -27 -16 -161 -15 -86 1
-160 -2 -166 -5 -8 -5 -32 -103 -63 -259 -5 -24 -10 -46 -20 -92 -3 -13 -8
-42 -11 -65 l-7 -42 154 0 c85 1 159 0 165 0 8 -1 6 -25 -6 -83 -11 -46 -21
-94 -24 -108 -3 -14 -7 -36 -10 -50 -3 -14 -15 -70 -26 -125 -11 -55 -22 -109
-24 -120 -3 -11 -14 -63 -25 -116 -11 -52 -21 -102 -23 -110 -3 -12 39 -14
272 -14 l274 0 8 35 c4 19 10 49 13 65 3 17 37 179 75 360 93 446 168 807 174
842 3 15 22 105 41 198 69 328 78 370 79 395 l1 25 -268 1 c-147 0 -269 -2
-271 -5z"/>
<path d="M3025 4451 c-2 -9 -14 -61 -25 -116 -12 -55 -23 -109 -26 -120 -2
-11 -7 -33 -9 -50 -3 -16 -8 -37 -10 -45 -2 -8 -6 -26 -9 -40 -5 -29 -29 -145
-87 -420 -22 -107 -43 -206 -45 -220 -3 -14 -16 -79 -30 -145 -31 -151 -32
-159 -40 -223 -36 -308 41 -449 277 -510 42 -10 93 -19 115 -18 l39 1 32 160
c18 88 35 174 38 190 3 17 19 93 35 170 16 77 50 241 75 365 25 124 57 281 71
350 14 69 28 136 30 150 3 13 12 56 20 95 9 38 18 84 20 100 3 17 9 46 14 65
5 19 12 51 15 70 3 19 13 69 21 110 9 41 16 80 17 85 1 6 -93 10 -265 11 -238
1 -268 -1 -273 -15z"/>
<path d="M4029 4356 c-13 -61 -24 -115 -25 -121 -2 -5 -6 -23 -9 -40 -3 -16
-20 -93 -36 -170 -17 -77 -33 -151 -35 -165 -3 -14 -18 -86 -34 -160 -37 -173
-142 -670 -145 -690 -2 -13 -31 -15 -188 -16 -103 0 -189 -3 -193 -7 -4 -3
-11 -28 -16 -54 -5 -26 -12 -59 -14 -73 -3 -14 -18 -88 -35 -164 -16 -77 -29
-145 -29 -151 0 -9 54 -12 223 -10 191 2 233 6 302 24 289 79 445 267 535 645
16 66 31 135 34 151 2 17 14 73 25 125 11 52 22 106 25 120 2 14 18 90 35 170
17 80 33 156 36 170 3 14 25 124 51 245 25 121 48 234 51 251 l5 31 -270 0
-270 -1 -23 -110z"/>
<path d="M4865 4456 c-7 -25 -37 -165 -90 -421 -31 -148 -74 -356 -96 -461
-22 -105 -42 -203 -45 -219 -3 -16 -12 -61 -20 -100 -9 -38 -17 -80 -20 -92
-6 -32 -12 -64 -18 -93 -14 -64 -17 -77 -21 -100 -3 -14 -10 -45 -15 -70 -5
-25 -23 -110 -39 -190 -17 -80 -31 -151 -31 -158 0 -11 92 -13 503 -10 487 4
504 5 577 27 200 60 347 202 416 401 58 164 67 322 25 417 -37 84 -105 134
-216 158 -29 7 -27 8 33 30 34 12 80 34 101 48 104 69 190 197 227 337 21 77
23 229 5 282 -29 85 -101 152 -203 188 -84 29 -100 31 -305 35 l-193 3 -9 -36
c-5 -21 -12 -53 -15 -72 -7 -39 -6 -34 -35 -175 -11 -54 -19 -101 -16 -103 2
-2 36 -5 77 -6 83 -3 112 -15 132 -54 30 -60 6 -193 -46 -250 -39 -41 -95 -62
-175 -62 -40 0 -73 -4 -73 -8 0 -5 -9 -49 -19 -98 -11 -49 -22 -105 -25 -124
-3 -19 -10 -52 -15 -72 l-9 -38 82 0 c129 0 169 -36 168 -152 -1 -121 -57
-233 -135 -269 -34 -15 -66 -19 -169 -19 -80 0 -128 4 -128 10 0 6 9 52 20
103 10 50 21 103 24 117 2 14 18 90 35 170 18 80 34 156 36 170 2 14 32 156
65 315 33 160 63 301 65 315 9 52 55 262 64 296 5 19 6 35 3 36 -4 0 -112 2
-240 3 -164 2 -235 -1 -237 -9z"/>
</g>
</svg>
